<svg width="16" height="15" viewBox="0 0 16 15" fill="none" xmlns="http://www.w3.org/2000/svg">
<path d="M0.371094 7.93915C0.195312 7.76337 0.125 7.55243 0.125 7.30634C0.125 7.0954 0.195312 6.88446 0.371094 6.70868L6.55859 0.802429C6.91016 0.486023 7.4375 0.486023 7.75391 0.837585C8.07031 1.15399 8.07031 1.71649 7.71875 2.0329L3.04297 6.46259H15.0312C15.4883 6.46259 15.875 6.8493 15.875 7.30634C15.875 7.79852 15.4883 8.15009 15.0312 8.15009H3.04297L7.71875 12.6149C8.07031 12.9313 8.07031 13.4587 7.75391 13.8102C7.4375 14.1618 6.91016 14.1618 6.55859 13.8454L0.371094 7.93915Z" fill="white"/>
</svg>
