<svg width="24" height="25" viewBox="0 0 24 25" fill="none" xmlns="http://www.w3.org/2000/svg">
<g clip-path="url(#clip0_118_536)">
<path d="M16.1484 6.11865H12.8438V8.93115H17.7656L16.6758 6.47021C16.5703 6.25928 16.3594 6.11865 16.1484 6.11865ZM18.1875 10.6187H5.8125V17.9312C5.8125 18.2476 6.05859 18.4937 6.375 18.4937H17.625C17.9062 18.4937 18.1875 18.2476 18.1875 17.9312V10.6187ZM6.19922 8.93115H11.1562V6.11865H7.81641C7.60547 6.11865 7.39453 6.25928 7.32422 6.47021L6.19922 8.93115ZM16.1484 4.43115C17.0273 4.43115 17.8359 4.9585 18.1875 5.76709L19.6641 9.07178C19.8047 9.35303 19.875 9.66943 19.875 9.98584V17.9312C19.875 19.1968 18.8555 20.1812 17.625 20.1812H6.375C5.10938 20.1812 4.125 19.1968 4.125 17.9312V9.98584C4.125 9.66943 4.16016 9.35303 4.30078 9.07178L5.77734 5.76709C6.12891 4.9585 6.9375 4.43115 7.81641 4.43115H16.1484Z" fill="white"/>
</g>
<defs>
<clipPath id="clip0_118_536">
<rect width="24" height="24" fill="white" transform="translate(0 0.0561523)"/>
</clipPath>
</defs>
</svg>
