<svg width="22" height="17" viewBox="0 0 22 17" fill="none" xmlns="http://www.w3.org/2000/svg">
<path d="M5.9375 2.11865V11.9624H16.0625V2.11865H5.9375ZM4.25 11.9624V2.11865C4.25 1.20459 4.98828 0.431152 5.9375 0.431152H16.0625C16.9766 0.431152 17.75 1.20459 17.75 2.11865V11.9624C18.207 11.9624 18.5938 12.3491 18.5938 12.8062C18.5938 13.2983 18.207 13.6499 17.75 13.6499H16.0625H5.9375H4.25C3.75781 13.6499 3.40625 13.2983 3.40625 12.8062C3.40625 12.3491 3.75781 11.9624 4.25 11.9624ZM3.125 9.43115V11.1187H2.5625V14.4937H19.4375V11.1187H18.875V9.43115H19.4375C20.3516 9.43115 21.125 10.2046 21.125 11.1187V14.4937C21.125 15.4429 20.3516 16.1812 19.4375 16.1812H2.5625C1.61328 16.1812 0.875 15.4429 0.875 14.4937V11.1187C0.875 10.2046 1.61328 9.43115 2.5625 9.43115H3.125ZM14.4102 5.63428L10.6484 9.396C10.4727 9.53662 10.2617 9.64209 10.0508 9.64209C9.80469 9.64209 9.59375 9.53662 9.45312 9.396L7.58984 7.49756C7.23828 7.18115 7.23828 6.65381 7.58984 6.3374C7.90625 5.98584 8.43359 5.98584 8.75 6.3374L10.0508 7.60303L13.2148 4.43896C13.5312 4.12256 14.0586 4.12256 14.375 4.43896C14.7266 4.79053 14.7266 5.31787 14.375 5.63428H14.4102Z" fill="white"/>
</svg>
