<svg width="64" height="65" viewBox="0 0 64 65" fill="none" xmlns="http://www.w3.org/2000/svg">
<g id="express-delivery 1">
<g id="XMLID_1_">
<g id="XMLID_4242_">
<g id="XMLID_1742_">
<path id="XMLID_1215_" d="M0 22.0564H24.125V23.3064H0V22.0564Z" fill="#949DA6"/>
</g>
<g id="XMLID_1741_">
<path id="XMLID_1214_" d="M14.125 15.4314H33.5V16.6814H14.125V15.4314Z" fill="#949DA6"/>
</g>
<g id="XMLID_1740_">
<path id="XMLID_1213_" d="M7.125 29.3064H24.375V30.5564H7.125V29.3064Z" fill="#949DA6"/>
</g>
<g id="XMLID_1734_">
<path id="XMLID_1212_" d="M13.75 45.4314H30.125V46.6814H13.75V45.4314Z" fill="#949DA6"/>
</g>
<path id="XMLID_1743_" d="M21.375 21.0564L42.375 10.0564L63.375 21.0564V43.0564L42.375 54.0564L21.375 43.0564V21.0564Z" fill="#FEC220"/>
<path id="XMLID_1906_" d="M63.375 21.0564V43.0564L42.375 54.0564V32.0564L63.375 21.0564Z" fill="#FEC220"/>
<path id="XMLID_1904_" d="M42.375 32.0564V54.0564L21.375 43.0564V21.0564L42.375 32.0564Z" fill="#FEC220"/>
<path id="XMLID_1737_" d="M28.8867 17.1189L50.3742 27.8564V36.4314L56.3742 33.4939V24.8064L34.8867 13.9689L28.8867 17.1189Z" fill="#001F55"/>
<path id="XMLID_1996_" d="M50.375 36.4314L56.375 33.4939V24.8064L56.2875 24.7689L50.375 27.8689V36.4314Z" fill="#001F55"/>
<g id="XMLID_1736_">
<path id="XMLID_91_" d="M31.0195 42.2439L39.1374 46.3689L39.1374 47.6206L31.0195 43.6205L31.0195 42.2439Z" fill="#001F55"/>
</g>
<g id="XMLID_1735_">
<path id="XMLID_90_" d="M35.0887 39.8065L39.1452 41.744L39.1452 43.1543L35.0887 41.126L35.0887 39.8065Z" fill="#001F55"/>
</g>
</g>
</g>
</g>
</svg>
