<svg width="24" height="25" viewBox="0 0 24 25" fill="none" xmlns="http://www.w3.org/2000/svg">
<g id="Icon / Map">
<path id="arrow-progress##" d="M18.75 3.3064C19.5234 3.3064 20.2617 3.76343 20.6836 4.4314C21.0703 5.13452 21.0703 6.01343 20.6836 6.6814C20.2617 7.38452 19.5234 7.8064 18.75 7.8064C17.9414 7.8064 17.2031 7.38452 16.7812 6.6814C16.3945 6.01343 16.3945 5.13452 16.7812 4.4314C17.2031 3.76343 17.9414 3.3064 18.75 3.3064ZM5.25 16.8064C6.05859 16.8064 6.79688 17.2634 7.18359 17.9314H8.625V17.4392C8.625 17.0876 8.90625 16.8064 9.22266 16.8064C9.36328 16.8064 9.50391 16.8767 9.60938 16.947L11.7539 18.6345C11.8945 18.74 12 18.8806 12 19.0564C12 19.2322 11.8945 19.408 11.7539 19.5134L9.60938 21.2009C9.50391 21.2712 9.36328 21.3064 9.22266 21.3064C8.90625 21.3064 8.625 21.0251 8.625 20.7087V20.1814H7.18359C6.79688 20.8845 6.05859 21.3064 5.25 21.3064C3.98438 21.3064 3 20.322 3 19.0564C3 17.8259 3.98438 16.8064 5.25 16.8064Z" fill="#949DA6"/>
<path id="arrow-progress#" d="M12 7.20874V6.6814H7.5C6.23438 6.6814 5.25 7.70093 5.25 8.9314C5.25 10.197 6.23438 11.1814 7.5 11.1814H16.5C18.9609 11.1814 21 13.2205 21 15.6814C21 17.8962 19.418 19.7244 17.3438 20.1111C16.9922 20.8142 16.2188 21.3064 15.375 21.3064C14.1094 21.3064 13.125 20.322 13.125 19.0564C13.125 17.8259 14.1094 16.8064 15.375 16.8064C16.1484 16.8064 16.8164 17.2283 17.2383 17.8259C18.1172 17.5095 18.75 16.6658 18.75 15.6814C18.75 14.4509 17.7305 13.4314 16.5 13.4314H7.5C5.00391 13.4314 3 11.4275 3 8.9314C3 6.47046 5.00391 4.4314 7.5 4.4314H12V3.93921C12 3.58765 12.2812 3.3064 12.5977 3.3064C12.7383 3.3064 12.8789 3.37671 12.9844 3.44702L15.1289 5.13452C15.2695 5.23999 15.375 5.38062 15.375 5.5564C15.375 5.73218 15.2695 5.90796 15.1289 6.01343L12.9844 7.70093C12.8789 7.77124 12.7383 7.8064 12.5977 7.8064C12.2812 7.8064 12 7.52515 12 7.20874Z" fill="#FEC220"/>
</g>
</svg>
