<svg width="24" height="19" viewBox="0 0 24 19" fill="none" xmlns="http://www.w3.org/2000/svg">
<path d="M13.125 1.99365H3C2.68359 1.99365 2.4375 2.2749 2.4375 2.55615V12.6812C2.4375 12.9976 2.68359 13.2437 3 13.2437H3.42188C4.01953 12.2593 5.10938 11.5562 6.375 11.5562C7.60547 11.5562 8.69531 12.2593 9.29297 13.2437H12H13.125C13.4062 13.2437 13.6875 12.9976 13.6875 12.6812V2.55615C13.6875 2.2749 13.4062 1.99365 13.125 1.99365ZM14.25 14.9312H13.9688H13.125H12H9.75C9.75 16.7944 8.23828 18.3062 6.375 18.3062C4.51172 18.3062 3 16.7944 3 14.9312C1.73438 14.9312 0.75 13.9468 0.75 12.6812V2.55615C0.75 1.32568 1.73438 0.306152 3 0.306152H13.125C14.3555 0.306152 15.375 1.32568 15.375 2.55615V3.68115H16.8516C17.3789 3.68115 17.8711 3.89209 18.2578 4.27881L21.5273 7.54834C21.9141 7.93506 22.125 8.42725 22.125 8.95459V13.2437H22.4062C22.8633 13.2437 23.25 13.6304 23.25 14.0874C23.25 14.5796 22.8633 14.9312 22.4062 14.9312H21C21 16.7944 19.4883 18.3062 17.625 18.3062C15.7617 18.3062 14.25 16.7944 14.25 14.9312ZM20.332 8.74365L17.0625 5.47412C16.9922 5.40381 16.9219 5.36865 16.8516 5.36865H15.375V8.74365H20.3672H20.332ZM4.6875 14.9312C4.6875 15.564 5.00391 16.0913 5.53125 16.4077C6.02344 16.7241 6.69141 16.7241 7.21875 16.4077C7.71094 16.0913 8.0625 15.564 8.0625 14.9312C8.0625 14.3335 7.71094 13.8062 7.21875 13.4897C6.69141 13.1733 6.02344 13.1733 5.53125 13.4897C5.00391 13.8062 4.6875 14.3335 4.6875 14.9312ZM17.625 13.2437C16.9922 13.2437 16.4648 13.5952 16.1484 14.0874C15.832 14.6147 15.832 15.2827 16.1484 15.7749C16.4648 16.3022 16.9922 16.6187 17.625 16.6187C18.2227 16.6187 18.75 16.3022 19.0664 15.7749C19.3828 15.2827 19.3828 14.6147 19.0664 14.0874C18.75 13.5952 18.2227 13.2437 17.625 13.2437Z" fill="white"/>
</svg>
