<svg width="24" height="25" viewBox="0 0 24 25" xmlns="http://www.w3.org/2000/svg">
<g clip-path="url(#clip0_100_53283)">
<path d="M13.125 6.40015C13.125 4.71265 14.4961 3.3064 16.2188 3.3064H22.4062C22.8633 3.3064 23.25 3.69312 23.25 4.15015C23.25 4.64233 22.8633 4.9939 22.4062 4.9939H16.2188C15.4102 4.9939 14.8125 5.62671 14.8125 6.40015V15.9978L15.6914 15.7517H15.7266C16.3242 14.3806 17.6953 13.4314 19.3125 13.4314C21.4922 13.4314 23.25 15.2244 23.25 17.3689C23.25 19.5486 21.4922 21.3064 19.3125 21.3064C17.2031 21.3064 15.4805 19.6892 15.375 17.5798L1.80469 21.3064C1.34766 21.4119 0.890625 21.1658 0.75 20.7087C0.644531 20.2517 0.890625 19.7947 1.34766 19.6541L13.125 16.4548V6.40015ZM21.5625 17.3689C21.5625 16.5955 21.1055 15.8572 20.4375 15.4353C19.7344 15.0486 18.8555 15.0486 18.1875 15.4353C17.4844 15.8572 17.0625 16.5955 17.0625 17.3689C17.0625 18.1775 17.4844 18.9158 18.1875 19.3376C18.8555 19.7244 19.7344 19.7244 20.4375 19.3376C21.1055 18.9158 21.5625 18.1775 21.5625 17.3689ZM1.55859 10.6189C1.38281 10.0212 1.73438 9.42358 2.33203 9.2478L3.98438 8.82593L4.6875 11.533C4.79297 11.8142 5.07422 11.99 5.39062 11.9197L6.48047 11.6384C6.76172 11.5681 6.9375 11.2517 6.86719 10.9353L6.12891 8.22827L7.78125 7.8064C8.37891 7.63062 8.97656 7.98218 9.15234 8.57983L10.5938 14.0291C10.7695 14.6267 10.418 15.2244 9.82031 15.4001L4.37109 16.8416C3.77344 17.0173 3.17578 16.6658 3 16.0681L1.55859 10.6189Z"/>
</g>
<defs>
<clipPath id="clip0_100_53283">
<rect width="24" height="24" fill="white" transform="translate(0 0.0563965)"/>
</clipPath>
</defs>
</svg>
