<svg width="16" height="19" viewBox="0 0 16 19" xmlns="http://www.w3.org/2000/svg">
<path d="M10.8125 4.75C10.8125 3.76562 10.25 2.85156 9.40625 2.32422C8.52734 1.83203 7.4375 1.83203 6.59375 2.32422C5.71484 2.85156 5.1875 3.76562 5.1875 4.75C5.1875 5.76953 5.71484 6.68359 6.59375 7.21094C7.4375 7.70312 8.52734 7.70312 9.40625 7.21094C10.25 6.68359 10.8125 5.76953 10.8125 4.75ZM3.5 4.75C3.5 3.16797 4.34375 1.69141 5.75 0.882812C7.12109 0.0742188 8.84375 0.0742188 10.25 0.882812C11.6211 1.69141 12.5 3.16797 12.5 4.75C12.5 6.36719 11.6211 7.84375 10.25 8.65234C8.84375 9.46094 7.12109 9.46094 5.75 8.65234C4.34375 7.84375 3.5 6.36719 3.5 4.75ZM1.84766 16.5625H14.1172C13.8008 14.3477 11.9023 12.625 9.58203 12.625H6.38281C4.0625 12.625 2.16406 14.3477 1.84766 16.5625ZM0.125 17.2305C0.125 13.75 2.90234 10.9375 6.38281 10.9375H9.58203C13.0625 10.9375 15.875 13.75 15.875 17.2305C15.875 17.793 15.3828 18.25 14.8203 18.25H1.14453C0.582031 18.25 0.125 17.793 0.125 17.2305Z" />
</svg>
